HIERARCHY
ROOT Hips
{
  OFFSET 54.4867 91.6782 5.56077
  CHANNELS 6 Xposition Yposition Zposition Zrotation Xrotation Yrotation
  JOINT spine
  {
    OFFSET 0 6.84637 0.3937
    CHANNELS 3 Zrotation Xrotation Yrotation
    JOINT spine1
    {
      OFFSET 0 9.49621 0
      CHANNELS 3 Zrotation Xrotation Yrotation
      JOINT spine2
      {
        OFFSET 0 9.09909 0
        CHANNELS 3 Zrotation Xrotation Yrotation
        JOINT Neck
        {
          OFFSET 0 23.3612 1.11378
          CHANNELS 3 Zrotation Xrotation Yrotation
          JOINT Head
          {
            OFFSET 0 7.05802 0
            CHANNELS 3 Zrotation Xrotation Yrotation
            End Site
            {
              OFFSET 0 17.0844 -5.63419
            }
          }
        }
        JOINT RightShoulder
        {
          OFFSET -3.83136 9.82631 -0.533491
          CHANNELS 3 Zrotation Xrotation Yrotation
          JOINT RightArm
          {
            OFFSET 0 12.8881 0
            CHANNELS 3 Zrotation Xrotation Yrotation
            JOINT RightArmRoll
            {
              OFFSET 0 6.50617 0
              CHANNELS 3 Zrotation Xrotation Yrotation
              JOINT RightForeArm
              {
                OFFSET 0 18.9501 0
                CHANNELS 3 Zrotation Xrotation Yrotation
                JOINT RightForeArmRoll
                {
                  OFFSET 0 7.30092 0
                  CHANNELS 3 Zrotation Xrotation Yrotation
                  JOINT RightHand
                  {
                    OFFSET 0 14.6514 0
                    CHANNELS 3 Zrotation Xrotation Yrotation
                    End Site
                    {
                      OFFSET 0 0 0
                    }
                  }
                }
              }
            }
          }
        }
        JOINT LeftShoulder
        {
          OFFSET 3.83136 9.82631 -0.533491
          CHANNELS 3 Zrotation Xrotation Yrotation
          JOINT LeftArm
          {
            OFFSET 0 12.8881 0
            CHANNELS 3 Zrotation Xrotation Yrotation
            JOINT LeftArmRoll
            {
              OFFSET 0 6.50617 0
              CHANNELS 3 Zrotation Xrotation Yrotation
              JOINT LeftForeArm
              {
                OFFSET 0 18.9501 0
                CHANNELS 3 Zrotation Xrotation Yrotation
                JOINT LeftForeArmRoll
                {
                  OFFSET 0 7.30092 0
                  CHANNELS 3 Zrotation Xrotation Yrotation
                  JOINT LeftHand
                  {
                    OFFSET 0 14.6514 0
                    CHANNELS 3 Zrotation Xrotation Yrotation
                    End Site
                    {
                      OFFSET 0 0 0
                    }
                  }
                }
              }
            }
          }
        }
      }
    }
  }
  JOINT RightUpLeg
  {
    OFFSET -6.06837 -1.11278 -0.933477
    CHANNELS 3 Zrotation Xrotation Yrotation
    JOINT RightUpLegRoll
    {
      OFFSET 0 17.1796 0
      CHANNELS 3 Zrotation Xrotation Yrotation
      JOINT RightLeg
      {
        OFFSET 0 -21.2743 0
        CHANNELS 3 Zrotation Xrotation Yrotation
        JOINT RightLegRoll
        {
          OFFSET 0 21.3439 0
          CHANNELS 3 Zrotation Xrotation Yrotation
          JOINT RightFoot
          {
            OFFSET 0 17.7652 0
            CHANNELS 3 Zrotation Xrotation Yrotation
            JOINT RightToeBase
            {
              OFFSET 0 14.8508 0
              CHANNELS 3 Zrotation Xrotation Yrotation
              End Site
              {
                OFFSET 0.0062947 7.19213 -0.829004
              }
            }
          }
        }
      }
    }
  }
  JOINT LeftUpLeg
  {
    OFFSET 6.06837 -1.11278 -0.933477
    CHANNELS 3 Zrotation Xrotation Yrotation
    JOINT LeftUpLegRoll
    {
      OFFSET 0 17.1797 0
      CHANNELS 3 Zrotation Xrotation Yrotation
      JOINT LeftLeg
      {
        OFFSET 0 21.2742 0
        CHANNELS 3 Zrotation Xrotation Yrotation
        JOINT LeftLegRoll
        {
          OFFSET 0 21.5412 0
          CHANNELS 3 Zrotation Xrotation Yrotation
          JOINT LeftFoot
          {
            OFFSET 0 17.5679 0
            CHANNELS 3 Zrotation Xrotation Yrotation
            JOINT LeftToeBase
            {
              OFFSET 0 14.8508 0
              CHANNELS 3 Zrotation Xrotation Yrotation
              End Site
              {
                OFFSET -0.0282102 7.19214 -0.829004
              }
            }
          }
        }
      }
    }
  }
}
MOTION
Frames: 6
Frame Time: 0.00208333
54.3995 91.5232 6.14936 -0.097044 -0.598784 -3.93183 0.256673 -1.94186 -0.0944704 0.51043 0.102701 -0.213395 0.513249 1.74772 -0.221959 -7.89261 17.9926 2.32981 5.63717 -3.67743 0.31476 71.4554 5.697 1.25087 101.93 4.44373 15.9396 -3.01082e-006 2.91496e-007 -4.04966e-006 9.10746 13.5532 -2.264 2.72873e-006 9.25243e-007 -2.99999 8.02903 -4.95142 0.697661 -70.5632 0.553497 1.07899 -106.022 5.04405 -22.8819 -8.94873e-008 2.60917e-008 3.65544e-006 -11.4176 8.45363 1.41542 4.99151e-006 1.48611e-006 3.00118 -8.02888 -4.95144 -0.697682 175.299 2.54754 1.18419 180 7.01554e-015 178.953 178.002 5.11743 179.944 -7.89379e-007 1.71256e-006 0.0353623 -18.4343 67.6474 19.2332 8.13649 25.2327 -3.48774 -175.003 -0.922566 -0.0580267 4.54188e-006 -4.6773e-006 -1.08156 -1.65773 -3.8412 0.0265042 1.49799e-006 -6.72004e-007 -0.0407076 18.7696 68.0825 -19.5993 -8.13649 25.2327 3.48774 
54.4013 91.5235 6.14777 -0.0994248 -0.588857 -3.92856 0.257765 -1.94435 -0.0950401 0.512538 0.0988323 -0.214521 0.515362 1.74386 -0.223129 -7.91043 17.995 2.33025 5.64225 -3.68307 0.309779 71.4197 5.66427 1.24134 101.943 4.41681 16.0086 -3.01082e-006 2.91496e-007 -4.04966e-006 9.06154 13.5463 -2.2603 2.72873e-006 9.25243e-007 -2.99999 8.02903 -4.95142 0.697661 -70.5398 0.538304 1.08369 -106.014 5.03349 -22.8915 -8.94873e-008 2.60917e-008 3.65544e-006 -11.4135 8.47734 1.41864 4.99151e-006 1.48611e-006 3.00118 -8.02888 -4.95144 -0.697682 175.303 2.55665 1.18006 180 7.01554e-015 178.953 178.003 5.11545 179.944 -7.89379e-007 1.71256e-006 0.0353623 -18.4343 67.6474 19.2332 8.13649 25.2327 -3.48774 -174.999 -0.912082 -0.0552343 4.54188e-006 -4.6773e-006 -1.08156 -1.6516 -3.84023 0.0269417 1.49799e-006 -6.72004e-007 -0.0407076 18.7694 68.0823 -19.5991 -8.13649 25.2327 3.48774 
54.3978 91.5309 6.14433 -0.101652 -0.578875 -3.92521 0.258916 -1.94683 -0.0956299 0.514733 0.0950233 -0.215679 0.517563 1.74005 -0.224334 -7.93046 17.9963 2.33096 5.64948 -3.68752 0.304586 71.3827 5.63175 1.23215 101.959 4.38939 16.0775 -3.01082e-006 2.91496e-007 -4.04966e-006 9.01552 13.5385 -2.25651 2.72873e-006 9.25243e-007 -2.99999 8.02903 -4.95142 0.697661 -70.5172 0.522773 1.08865 -106.006 5.02254 -22.9004 -8.94873e-008 2.60917e-008 3.65544e-006 -11.4101 8.5028 1.42216 4.99151e-006 1.48611e-006 3.00118 -8.02888 -4.95144 -0.697682 175.308 2.5658 1.17595 180 7.01554e-015 178.953 178.005 5.11343 179.943 -7.89379e-007 1.71256e-006 0.0353623 -18.4343 67.6474 19.2332 8.13649 25.2327 -3.48774 -174.995 -0.901492 -0.0523487 4.54188e-006 -4.6773e-006 -1.08156 -1.64541 -3.8393 0.0273826 1.49799e-006 -6.72004e-007 -0.0407076 18.7692 68.082 -19.5989 -8.13649 25.2327 3.48774 
54.3925 91.5287 6.14673 -0.103773 -0.568854 -3.92181 0.260108 -1.94929 -0.0962339 0.516988 0.0912565 -0.216861 0.519825 1.73628 -0.225562 -7.95204 17.9969 2.33184 5.65823 -3.69116 0.299245 71.3447 5.59939 1.22318 101.975 4.36164 16.1463 -3.01082e-006 2.91496e-007 -4.04966e-006 8.96944 13.5301 -2.25267 2.72873e-006 9.25243e-007 -2.99999 8.02903 -4.95142 0.697661 -70.4951 0.507004 1.09378 -105.997 5.01132 -22.9089 -8.94873e-008 2.60917e-008 3.65544e-006 -11.4071 8.52949 1.42589 4.99151e-006 1.48611e-006 3.00118 -8.02888 -4.95144 -0.697682 175.313 2.57498 1.17187 180 7.01554e-015 178.953 178.006 5.1114 179.943 -7.89379e-007 1.71256e-006 0.0353623 -18.4342 67.6473 19.2332 8.13649 25.2327 -3.48774 -174.991 -0.890827 -0.0493978 4.54188e-006 -4.6773e-006 -1.08156 -1.63918 -3.8384 0.0278257 1.49799e-006 -6.72004e-007 -0.0407076 18.769 68.0817 -19.5986 -8.13649 25.2327 3.48774 
54.3932 91.5059 6.14126 -0.105833 -0.55881 -3.91838 0.261324 -1.95176 -0.0968459 0.519278 0.0875136 -0.218056 0.522121 1.73254 -0.226804 -7.9745 17.9969 2.33283 5.66784 -3.69432 0.29382 71.3062 5.5671 1.21434 101.993 4.33368 16.215 -3.01082e-006 2.91496e-007 -4.04966e-006 8.92333 13.5214 -2.2488 2.72873e-006 9.25243e-007 -2.99999 8.02903 -4.95142 0.697661 -70.4734 0.491101 1.09902 -105.989 4.99995 -22.9171 -8.94873e-008 2.60917e-008 3.65544e-006 -11.4045 8.55687 1.42975 4.99151e-006 1.48611e-006 3.00118 -8.02888 -4.95144 -0.697682 175.317 2.58417 1.1678 180 7.01554e-015 178.953 178.007 5.10936 179.943 -7.89379e-007 1.71256e-006 0.0353623 -18.4341 67.6473 19.2331 8.13649 25.2327 -3.48774 -174.988 -0.880119 -0.0464095 4.54188e-006 -4.6773e-006 -1.08156 -1.63292 -3.83752 0.0282702 1.49799e-006 -6.72004e-007 -0.0407076 18.7687 68.0815 -19.5984 -8.13649 25.2327 3.48774 
54.3859 91.5083 6.13617 -0.10788 -0.548761 -3.91494 0.262546 -1.95421 -0.09746 0.521577 0.0837768 -0.219254 0.524426 1.7288 -0.22805 -7.99719 17.9969 2.33385 5.67766 -3.69736 0.288373 71.2676 5.53484 1.20554 102.01 4.30569 16.2837 -3.01082e-006 2.91496e-007 -4.04966e-006 8.87721 13.5126 -2.24492 2.72873e-006 9.25243e-007 -2.99999 8.02903 -4.95142 0.697661 -70.4517 0.475163 1.10428 -105.981 4.98853 -22.9252 -8.94873e-008 2.60917e-008 3.65544e-006 -11.4018 8.58443 1.43363 4.99151e-006 1.48611e-006 3.00118 -8.02888 -4.95144 -0.697682 175.322 2.59338 1.16372 180 7.01554e-015 178.953 178.008 5.1073 179.943 -7.89379e-007 1.71256e-006 0.0353623 -18.4341 67.6472 19.233 8.13649 25.2327 -3.48774 -174.984 -0.8694 -0.043412 4.54188e-006 -4.6773e-006 -1.08156 -1.62666 -3.83664 0.0287151 1.49799e-006 -6.72004e-007 -0.0407076 18.7685 68.0812 -19.5981 -8.13649 25.2327 3.48774 
